SplineFontDB: 3.2
FontName: ridiculousobsessionsRegular
FullName: ridiculous obsessions Regular
FamilyName: ridiculous obsessions
Weight: Regular
Copyright: ""
Version: ""
ItalicAngle: 0
UnderlinePosition: 0
UnderlineWidth: 0
Ascent: 700
Descent: 300
InvalidEm: 0
sfntRevision: 0x00010000
LayerCount: 2
Layer: 0 0 "Back" 1
Layer: 1 0 "Fore" 0
XUID: [1021 389 1203187482 8621]
StyleMap: 0x0040
FSType: 0
OS2Version: 3
OS2_WeightWidthSlopeOnly: 0
OS2_UseTypoMetrics: 0
CreationTime: 1591628279
ModificationTime: 1591697397
PfmFamily: 81
TTFWeight: 500
TTFWidth: 5
LineGap: 0
VLineGap: 0
Panose: 0 0 0 0 0 0 0 0 0 0
OS2TypoAscent: 700
OS2TypoAOffset: 0
OS2TypoDescent: -300
OS2TypoDOffset: 0
OS2TypoLinegap: 0
OS2WinAscent: 708
OS2WinAOffset: 0
OS2WinDescent: 312
OS2WinDOffset: 0
HheadAscent: 700
HheadAOffset: 0
HheadDescent: -300
HheadDOffset: 0
OS2SubXSize: 650
OS2SubYSize: 699
OS2SubXOff: 0
OS2SubYOff: 140
OS2SupXSize: 650
OS2SupYSize: 699
OS2SupXOff: 0
OS2SupYOff: 479
OS2StrikeYSize: 49
OS2StrikeYPos: 258
OS2XHeight: 480
OS2Vendor: 'XXXX'
OS2CodePages: 00000001.00000000
OS2UnicodeRanges: 00000001.00000000.00000000.00000000
DEI: 91125
LangName: 1033 "" "" "" "+ACIAIgAA:ridiculous obsessions Regular" "" "+ACIAIgAA" "" "+ACIAIgAA" "+ACIAIgAA" "+ACIAIgAA" "+ACIAIgAA" "+ACIAIgAA" "+ACIAIgAA" "+ACIAIgAA" "+ACIAIgAA" "" "ridiculous obsessions" "Regular"
Encoding: UnicodeBmp
UnicodeInterp: none
NameList: AGL For New Fonts
DisplaySize: -48
AntiAlias: 1
FitToEm: 0
WinInfo: 0 23 9
BeginChars: 65536 47

StartChar: .notdef
Encoding: 0 -1 0
AltUni2: 000000.ffffffff.0
Width: 522
Flags: W
LayerCount: 2
Fore
SplineSet
50 684 m 1
 50 684 472 684 472 684 c 1
 472 684 472 0 472 0 c 1
 472 0 50 0 50 0 c 1
 50 0 50 684 50 684 c 1
99 49 m 1
 99 49 423 49 423 49 c 1
 423 49 423 635 423 635 c 1
 423 635 99 635 99 635 c 1
 99 635 99 49 99 49 c 1
EndSplineSet
Validated: 1
EndChar

StartChar: space
Encoding: 32 32 1
Width: 500
Flags: W
LayerCount: 2
Fore
SplineSet
-533 607 m 1
 -533 607 -533 607 -533 607 c 1
EndSplineSet
Validated: 1
EndChar

StartChar: exclam
Encoding: 33 33 2
Width: 228
Flags: HWO
LayerCount: 2
Fore
SplineSet
178 631 m 2
 178 631 146 241 146 241 c 2
 145.036133963 223.650411338 130.136701873 210.94601136 113.83825463 210.94601136 c 0
 113.227249086 210.94601136 112.614277374 210.963866037 112 211 c 0
 96 212 83 225 82 241 c 2
 82 241 50 631 50 631 c 2
 49.8471442941 632.783316569 49.7721714776 634.556248754 49.7721714776 636.315621927 c 0
 49.7721714776 670.150173252 77.5351390423 700.227828522 114.315621927 700.227828522 c 0
 147.086327226 700.227828522 175.152855706 674.216683431 178 641 c 0
 178 638 178 634 178 631 c 2
114 -15 m 0
 79 -15 50 14 50 49 c 0
 50 84 79 113 114 113 c 0
 149 113 178 84 178 49 c 0
 178 14 149 -15 114 -15 c 0
EndSplineSet
Validated: 524289
EndChar

StartChar: quotedbl
Encoding: 34 34 3
Width: 395
Flags: W
LayerCount: 2
Fore
SplineSet
181 611 m 2
 181 611 149 514 149 514 c 2
 144 497 125 487 107 493 c 0
 96 496 89 505 85 514 c 2
 85 514 53 611 53 611 c 2
 42 647 61 685 96 697 c 0
 132 708 170 689 181 654 c 0
 186 639 186 625 181 611 c 2
341 611 m 2
 341 611 309 514 309 514 c 2
 304 497 285 487 267 493 c 0
 256 496 249 505 245 514 c 2
 245 514 213 611 213 611 c 2
 202 647 221 685 256 697 c 0
 292 708 330 689 341 654 c 0
 346 639 346 625 341 611 c 2
EndSplineSet
Validated: 33
EndChar

StartChar: ampersand
Encoding: 38 38 4
Width: 615
Flags: HW
LayerCount: 2
Fore
SplineSet
556 54 m 0
 584 23 541 -20 510 10 c 0
 509 11 496 25 475 47 c 1
 426 3 361 -18 296 -15 c 0
 233 -13 170 12 125 59 c 0
 75 110 50 174 50 236 c 0
 49 327 99 417 190 466 c 1
 168 524 167 571 177 608 c 0
 195 668 247 699 299 700 c 0
 362 701 427 657 431 566 c 0
 432 499 376 450 311 440 c 0
 298 438 286 436 274 432 c 1
 312 350 405 224 473 146 c 1
 492 179 502 221 496 261 c 1
 455 243 408 275 408 320 c 0
 408 359 440 384 472 384 c 0
 489 384 506 376 520 362 c 0
 552 331 567 268 560 208 c 0
 556 170 542 131 518 96 c 1
 541 70 556 55 556 54 c 0
301 636 m 0
 262 636 235 607 235 566 c 0
 235 544 240 519 249 491 c 1
 270 495 360 505 367 566 c 0
 372 606 339 636 301 636 c 0
306 48 m 0
 354 48 398 66 432 95 c 1
 359 178 256 317 215 407 c 1
 145 367 114 301 115 237 c 0
 116 142 188 50 306 48 c 0
EndSplineSet
Validated: 33
EndChar

StartChar: quotesingle
Encoding: 39 39 5
Width: 235
Flags: W
LayerCount: 2
Fore
SplineSet
181 611 m 2
 181 611 149 514 149 514 c 2
 144 497 125 487 107 493 c 0
 96 496 89 505 85 514 c 2
 85 514 53 611 53 611 c 2
 42 647 61 685 96 697 c 0
 132 708 170 689 181 654 c 0
 186 639 186 625 181 611 c 2
EndSplineSet
Validated: 33
EndChar

StartChar: comma
Encoding: 44 44 6
Width: 229
Flags: W
LayerCount: 2
Fore
SplineSet
178 48 m 0
 186 -10 119 -96 84 -96 c 0
 65 -96 81 -55 77 -21 c 0
 74 9 50 8 50 48 c 0
 50 83 79 112 114 112 c 0
 149 112 173 83 178 48 c 0
EndSplineSet
Validated: 33
EndChar

StartChar: period
Encoding: 46 46 7
Width: 228
Flags: HW
LayerCount: 2
Fore
SplineSet
114 -16 m 0
 79 -16 50 13 50 48 c 0
 50 83 79 112 114 112 c 0
 149 112 178 83 178 48 c 0
 178 13 149 -16 114 -16 c 0
EndSplineSet
Validated: 1
EndChar

StartChar: colon
Encoding: 58 58 8
Width: 292
Flags: HW
LayerCount: 2
Fore
SplineSet
146 274 m 0
 93 274 50 317 50 370 c 0
 50 423 93 466 146 466 c 0
 199 466 242 423 242 370 c 0
 242 317 199 274 146 274 c 0
146 17 m 0
 93 17 50 60 50 113 c 0
 50 166 93 209 146 209 c 0
 199 209 242 166 242 113 c 0
 242 60 199 17 146 17 c 0
EndSplineSet
Validated: 1
EndChar

StartChar: semicolon
Encoding: 59 59 9
Width: 229
Flags: HW
LayerCount: 2
Fore
SplineSet
178 48 m 0
 186 -10 119 -96 84 -96 c 0
 65 -96 81 -55 77 -21 c 0
 74 9 50 8 50 48 c 0
 50 83 79 112 114 112 c 0
 149 112 173 83 178 48 c 0
114 177 m 0
 79 177 50 206 50 241 c 0
 50 276 79 305 114 305 c 0
 149 305 178 276 178 241 c 0
 178 206 149 177 114 177 c 0
EndSplineSet
Validated: 33
EndChar

StartChar: question
Encoding: 63 63 10
Width: 466
Flags: HW
LayerCount: 2
Fore
SplineSet
207 208 m 0
 189 208 175 222 175 240 c 2
 175 240 175 313 175 313 c 2
 175 321 178 329 184 335 c 0
 190 341 198 345 207 345 c 0
 302 349 351 418 352 488 c 0
 352 560 304 632 207 636 c 0
 168 636 132 621 104 594 c 0
 92 582 72 582 59 595 c 0
 47 607 47 628 60 640 c 0
 101 681 152 700 203 700 c 0
 311 700 417 616 416 490 c 0
 416 386 339 299 239 283 c 1
 239 283 239 240 239 240 c 2
 239 222 224 208 207 208 c 0
207 -16 m 0
 172 -16 143 13 143 48 c 0
 143 83 172 112 207 112 c 0
 242 112 271 83 271 48 c 0
 271 13 242 -16 207 -16 c 0
EndSplineSet
Validated: 33
EndChar

StartChar: a
Encoding: 97 97 21
Width: 634
Flags: HW
LayerCount: 2
Fore
SplineSet
584 82 m 0
 584 77 585 40 559 12 c 0
 533 -18 463 -29 426 7 c 0
 413 19 404 36 398 58 c 1
 351 8 277 -19 208 -15 c 0
 157 -13 110 7 79 47 c 0
 30 108 46 185 108 226 c 0
 141 248 187 259 244 259 c 0
 340 259 387 282 386 314 c 1
 373 394 283 458 194 422 c 1
 226 381 196 319 143 319 c 0
 99 319 72 368 84 406 c 0
 99 459 174 491 228 495 c 0
 322 503 424 446 448 329 c 0
 449 328 449 327 449 326 c 0
 460 266 453 232 452 181 c 0
 452 145 452 102 459 75 c 0
 466 50 479 48 490 48 c 0
 502 48 519 56 520 79 c 0
 521 96 533 111 551 112 c 0
 568 113 583 99 584 82 c 0
343 94 m 0
 374 121 388 151 388 169 c 0
 388 187 389 206 390 222 c 1
 355 204 306 195 244 195 c 0
 200 195 166 187 143 172 c 0
 128 162 118 149 114 132 c 0
 112 124 115 105 129 86 c 0
 143 69 170 48 223 48 c 0
 282 48 323 77 343 94 c 0
EndSplineSet
Validated: 33
EndChar

StartChar: b
Encoding: 98 98 22
Width: 657
Flags: HW
LayerCount: 2
Fore
SplineSet
539 420 m 1
 630 327 630 153 539 59 c 1
 457 -32 301 -43 210 39 c 1
 210 39 216 0 174 0 c 2
 174 0 82 0 82 0 c 2
 39 1 39 62 82 64 c 2
 82 64 146 64 146 64 c 1
 146 64 146 636 146 636 c 1
 146 636 82 636 82 636 c 2
 39 638 39 698 82 700 c 2
 82 700 178 700 178 700 c 2
 195 700 210 686 210 668 c 2
 210 668 210 440 210 440 c 1
 301 522 457 511 539 420 c 1
362 48 m 0
 466 48 544 130 544 240 c 0
 544 439 301 499 210 343 c 1
 210 343 210 137 210 137 c 1
 236 95 283 48 362 48 c 0
EndSplineSet
Validated: 33
EndChar

StartChar: c
Encoding: 99 99 23
Width: 582
Flags: HW
LayerCount: 2
Fore
SplineSet
532 448 m 2
 532 448 532 352 532 352 c 2
 532 317 486 310 471 337 c 0
 371 505 115 436 114 240 c 0
 115 44 372 -24 472 144 c 0
 495 180 547 150 527 112 c 0
 445 -32 241 -60 124 59 c 0
 25 155 25 326 124 421 c 1
 214 514 369 521 468 439 c 1
 468 439 468 448 468 448 c 2
 469 491 530 491 532 448 c 2
EndSplineSet
Validated: 33
EndChar

StartChar: d
Encoding: 100 100 24
Width: 658
Flags: HW
LayerCount: 2
Fore
SplineSet
576 64 m 2
 597 63 608 47 608 32 c 0
 608 16 597 1 576 0 c 2
 576 0 484 0 484 0 c 2
 443 0 448 39 448 39 c 1
 366 -28 266 -31 186 10 c 0
 107 50 49 134 50 240 c 0
 49 361 126 453 223 485 c 0
 295 508 378 498 448 440 c 1
 448 440 448 668 448 668 c 2
 448 686 462 700 480 700 c 2
 480 700 576 700 576 700 c 2
 597 699 608 684 608 668 c 0
 608 652 597 637 576 636 c 2
 576 636 512 636 512 636 c 1
 512 636 512 64 512 64 c 1
 512 64 576 64 576 64 c 2
296 48 m 0
 375 48 422 95 448 137 c 1
 448 137 448 343 448 343 c 1
 357 499 114 439 114 240 c 0
 114 130 192 48 296 48 c 0
EndSplineSet
Validated: 33
EndChar

StartChar: e
Encoding: 101 101 25
Width: 612
Flags: HW
LayerCount: 2
Fore
SplineSet
562 241 m 0
 563 223 548 208 530 208 c 2
 530 208 117 208 117 208 c 1
 132 114 211 54 296 49 c 0
 347 45 399 62 440 102 c 0
 453 115 473 115 485 102 c 0
 498 89 497 69 485 57 c 0
 437 10 373 -16 306 -16 c 0
 155 -16 54 106 50 235 c 0
 48 300 71 367 125 421 c 0
 176 472 239 495 300 496 c 0
 433 498 561 396 562 241 c 0
117 272 m 1
 117 272 495 272 495 272 c 1
 455 485 157 484 117 272 c 1
EndSplineSet
Validated: 33
EndChar

StartChar: f
Encoding: 102 102 26
Width: 450
Flags: HW
LayerCount: 2
Fore
SplineSet
384 639 m 0
 428 557 369 516 336 516 c 0
 273 516 249 597 300 633 c 1
 293 635 286 636 278 636 c 0
 249 636 230 626 220 604 c 0
 210 581 210 557 210 557 c 2
 210 556 210 556 210 556 c 1
 210 556 210 448 210 448 c 1
 210 448 256 448 274 448 c 0
 292 448 306 434 306 416 c 0
 306 398 292 384 274 384 c 2
 274 384 210 384 210 384 c 1
 210 384 210 64 210 64 c 1
 210 64 256 64 274 64 c 0
 292 64 306 50 306 32 c 0
 306 14 292 0 274 0 c 2
 274 0 100 0 82 0 c 0
 64 0 50 14 50 32 c 0
 50 50 64 64 82 64 c 2
 82 64 146 64 146 64 c 1
 146 64 146 384 146 384 c 1
 146 384 100 384 82 384 c 0
 64 384 50 398 50 416 c 0
 50 434 64 448 82 448 c 2
 82 448 146 448 146 448 c 1
 146 448 146 556 146 556 c 2
 146 678 233 700 277 700 c 0
 345 700 374 657 384 639 c 0
EndSplineSet
Validated: 33
EndChar

StartChar: g
Encoding: 103 103 27
Width: 507
Flags: HW
LayerCount: 2
Fore
SplineSet
216 94 m 1
 432 108 535 -114 390 -243 c 0
 333 -294 245 -312 169 -292 c 0
 137 -284 107 -269 83 -247 c 0
 43 -207 71 -138 128 -138 c 0
 175 -138 206 -188 186 -230 c 1
 282 -257 394 -193 393 -100 c 0
 393 20 220 69 126 -2 c 0
 113 -12 94 -10 83 3 c 0
 72 15 73 34 84 46 c 2
 84 46 170 139 170 139 c 1
 -20 212 27 492 233 496 c 1
 233 496 425 496 425 496 c 2
 443 496 457 482 457 464 c 0
 457 446 443 432 425 432 c 2
 425 432 373 432 373 432 c 1
 471 320 396 139 248 129 c 1
 248 129 216 94 216 94 c 1
113 312 m 0
 113 246 167 192 233 192 c 0
 392 199 392 425 233 432 c 0
 167 432 113 378 113 312 c 0
EndSplineSet
Validated: 33
EndChar

StartChar: h
Encoding: 104 104 28
Width: 667
Flags: HW
LayerCount: 2
Fore
SplineSet
585 64 m 2
 607 64 618 48 617 32 c 0
 617 16 606 0 585 0 c 2
 585 0 393 0 393 0 c 2
 371 0 361 16 361 32 c 0
 361 48 372 64 393 64 c 2
 393 64 458 64 458 64 c 1
 458 64 458 319 458 319 c 2
 458 365 452 418 409 429 c 0
 317 449 240 334 210 261 c 1
 210 261 210 64 210 64 c 1
 210 64 274 64 274 64 c 2
 295 64 306 48 306 32 c 0
 306 16 296 0 274 0 c 2
 274 0 82 0 82 0 c 2
 60 0 50 16 50 32 c 0
 50 48 61 64 82 64 c 2
 82 64 146 64 146 64 c 1
 146 64 146 636 146 636 c 1
 146 636 82 636 82 636 c 2
 40 638 40 698 82 700 c 2
 82 700 178 700 178 700 c 2
 196 700 210 686 210 668 c 2
 210 668 210 389 210 389 c 1
 263 462 330 496 387 496 c 0
 444 497 491 465 511 405 c 0
 522 371 522 337 522 319 c 2
 522 319 522 64 522 64 c 1
 522 64 585 64 585 64 c 2
EndSplineSet
Validated: 33
EndChar

StartChar: i
Encoding: 105 105 29
Width: 356
Flags: HW
LayerCount: 2
Fore
SplineSet
178 539 m 0
 143 539 114 568 114 603 c 0
 117 688 239 688 242 603 c 0
 242 568 213 539 178 539 c 0
274 64 m 2
 295 64 306 48 306 32 c 0
 306 16 295 0 274 0 c 2
 274 0 82 0 82 0 c 2
 60 0 50 17 50 33 c 0
 50 49 61 64 82 64 c 2
 82 64 146 64 146 64 c 1
 146 64 146 416 146 416 c 1
 146 416 132 416 114 416 c 0
 96 416 82 431 82 448 c 0
 82 466 96 480 114 480 c 2
 114 480 178 480 178 480 c 2
 196 480 210 466 210 448 c 2
 210 448 210 64 210 64 c 1
 210 64 274 64 274 64 c 2
EndSplineSet
Validated: 33
EndChar

StartChar: j
Encoding: 106 106 30
Width: 390
Flags: HW
LayerCount: 2
Fore
SplineSet
308 448 m 2
 308 448 308 -156 308 -156 c 2
 308 -161 308 -196 292 -230 c 0
 283 -252 268 -268 249 -280 c 0
 212 -305 148 -307 110 -282 c 0
 59 -252 44 -187 52 -153 c 0
 60 -120 84 -93 118 -93 c 0
 194 -95 206 -200 133 -219 c 1
 143 -230 157 -236 176 -236 c 0
 234 -237 242 -190 244 -157 c 0
 244 -156 244 416 244 416 c 1
 244 416 230 416 212 416 c 0
 194 416 180 430 180 448 c 0
 180 466 194 480 212 480 c 2
 212 480 276 480 276 480 c 2
 294 480 308 466 308 448 c 2
276 668 m 0
 311 668 340 639 340 604 c 0
 337 519 215 519 212 604 c 0
 212 639 241 668 276 668 c 0
EndSplineSet
Validated: 33
EndChar

StartChar: k
Encoding: 107 107 31
Width: 667
Flags: HW
LayerCount: 2
Fore
SplineSet
585 64 m 2
 607 64 617 48 617 32 c 0
 617 16 606 0 585 0 c 0
 537 0 441 0 393 0 c 0
 371 0 361 16 361 32 c 0
 362 48 373 64 393 64 c 2
 393 64 454 64 454 64 c 1
 454 64 302 299 302 299 c 1
 260 241 215 137 210 122 c 1
 210 122 210 64 210 64 c 1
 210 64 274 64 274 64 c 2
 295 64 306 48 306 32 c 0
 307 16 296 0 274 0 c 2
 274 0 82 0 82 0 c 2
 61 0 50 16 50 32 c 0
 50 48 61 64 82 64 c 2
 82 64 146 64 146 64 c 1
 146 64 146 636 146 636 c 1
 146 636 82 636 82 636 c 2
 64 636 50 650 50 668 c 0
 50 686 64 700 82 700 c 2
 82 700 178 700 178 700 c 2
 196 700 210 686 210 668 c 2
 210 668 210 272 210 272 c 1
 234 329 290 395 339 436 c 0
 386 476 437 499 489 496 c 0
 520 494 553 467 553 432 c 0
 551 356 446 344 427 417 c 1
 397 403 369 380 345 354 c 1
 345 354 528 64 528 64 c 1
 528 64 585 64 585 64 c 2
EndSplineSet
Validated: 33
EndChar

StartChar: l
Encoding: 108 108 32
Width: 356
Flags: HW
LayerCount: 2
Fore
SplineSet
274 64 m 2
 292 64 306 50 306 32 c 0
 306 14 292 0 274 0 c 2
 274 0 82 0 82 0 c 2
 61 0 50 16 50 32 c 0
 50 48 61 64 82 64 c 2
 82 64 146 64 146 64 c 1
 146 64 146 636 146 636 c 1
 146 636 132 636 114 636 c 0
 96 636 82 650 82 668 c 0
 82 686 96 700 114 700 c 2
 114 700 178 700 178 700 c 2
 196 700 210 686 210 668 c 2
 210 668 210 64 210 64 c 1
 210 64 274 64 274 64 c 2
EndSplineSet
Validated: 1
EndChar

StartChar: m
Encoding: 109 109 33
Width: 978
Flags: HW
LayerCount: 2
Fore
SplineSet
896 64 m 2
 917 64 928 47 928 32 c 0
 928 16 917 0 896 0 c 2
 896 0 704 0 704 0 c 2
 683 0 672 16 672 32 c 0
 672 47 683 64 704 64 c 2
 704 64 768 64 768 64 c 1
 768 64 768 319 768 319 c 2
 768 365 763 418 719 429 c 0
 628 449 551 335 521 263 c 1
 521 263 521 64 521 64 c 1
 521 64 585 64 585 64 c 2
 606 64 617 48 617 32 c 0
 617 16 606 0 585 0 c 2
 585 0 393 0 393 0 c 2
 372 0 361 16 361 32 c 0
 361 47 372 64 393 64 c 2
 393 64 457 64 457 64 c 1
 457 64 457 269 457 271 c 0
 456 323 468 414 408 429 c 0
 317 448 240 335 210 261 c 1
 210 261 210 64 210 64 c 1
 210 64 274 64 274 64 c 2
 295 64 306 47 306 32 c 0
 306 16 295 0 274 0 c 2
 274 0 82 0 82 0 c 2
 61 0 50 16 50 32 c 0
 50 47 61 64 82 64 c 2
 82 64 146 64 146 64 c 1
 146 64 146 416 146 416 c 1
 146 416 132 416 114 416 c 0
 96 416 82 430 82 448 c 0
 82 465 96 480 114 480 c 2
 114 480 178 480 178 480 c 2
 195 480 210 465 210 448 c 2
 210 448 210 389 210 389 c 1
 269 468 341 501 401 495 c 0
 458 490 504 450 516 383 c 1
 523 392 581 472 654 490 c 0
 746 513 802 465 821 405 c 0
 832 372 832 337 832 319 c 2
 832 319 832 64 832 64 c 1
 832 64 896 64 896 64 c 2
EndSplineSet
Validated: 33
EndChar

StartChar: n
Encoding: 110 110 34
Width: 667
Flags: HW
LayerCount: 2
Fore
SplineSet
585 63 m 2
 606 63 617 47 617 31 c 0
 617 16 605 -1 585 -1 c 2
 585 -1 393 -1 393 -1 c 2
 372 -1 361 16 361 31 c 0
 361 47 372 63 393 63 c 2
 393 63 457 63 457 63 c 1
 457 63 457 318 457 318 c 2
 457 364 452 418 408 429 c 0
 317 448 240 334 210 261 c 1
 210 261 210 63 210 63 c 1
 210 63 274 63 274 63 c 2
 295 63 306 47 306 31 c 0
 306 16 295 -1 274 -1 c 2
 274 -1 82 -1 82 -1 c 2
 62 -1 50 16 50 31 c 0
 50 47 61 63 82 63 c 2
 82 63 146 63 146 63 c 1
 146 63 146 415 146 415 c 1
 146 415 132 415 114 415 c 0
 96 415 82 429 82 447 c 0
 82 465 96 479 114 479 c 2
 114 479 178 479 178 479 c 2
 195 479 210 465 210 447 c 2
 210 447 210 388 210 388 c 1
 262 458 324 492 379 496 c 0
 439 499 490 467 510 405 c 0
 521 371 521 337 521 318 c 2
 521 318 521 63 521 63 c 1
 521 63 585 63 585 63 c 2
EndSplineSet
Validated: 33
EndChar

StartChar: o
Encoding: 111 111 35
Width: 612
Flags: W
LayerCount: 2
Fore
SplineSet
306 -16 m 0
 238 -16 173 11 125 59 c 0
 77 107 50 172 50 240 c 0
 50 308 77 373 125 421 c 0
 173 469 238 496 306 496 c 0
 374 496 439 469 487 421 c 0
 535 373 562 308 562 240 c 0
 562 172 535 107 487 59 c 0
 439 11 374 -16 306 -16 c 0
306 432 m 0
 200 432 114 346 114 240 c 0
 114 134 200 48 306 48 c 0
 412 48 498 134 498 240 c 0
 498 346 412 432 306 432 c 0
EndSplineSet
Validated: 1
EndChar

StartChar: p
Encoding: 112 112 36
Width: 657
Flags: HW
LayerCount: 2
Fore
SplineSet
539 421 m 0
 630 327 630 154 539 60 c 0
 494 11 429 -15 363 -15 c 0
 307 -16 252 2 210 40 c 1
 210 40 210 -236 210 -236 c 1
 210 -236 274 -236 274 -236 c 2
 295 -236 306 -252 306 -268 c 0
 306 -283 295 -300 274 -300 c 2
 274 -300 82 -300 82 -300 c 2
 61 -300 50 -283 50 -268 c 0
 50 -252 61 -236 82 -236 c 2
 82 -236 146 -236 146 -236 c 1
 146 -236 146 416 146 416 c 1
 146 416 114 416 114 416 c 2
 71 418 71 479 114 480 c 2
 114 480 178 480 178 480 c 2
 196 480 210 466 210 448 c 2
 210 448 210 441 210 441 c 1
 255 482 317 499 377 496 c 0
 438 492 498 466 539 421 c 0
362 48 m 0
 466 48 544 131 544 240 c 0
 544 325 500 385 443 413 c 0
 365 452 262 433 210 343 c 1
 210 343 210 137 210 137 c 1
 236 95 283 48 362 48 c 0
EndSplineSet
Validated: 33
EndChar

StartChar: q
Encoding: 113 113 37
Width: 658
Flags: HW
LayerCount: 2
Fore
SplineSet
576 -237 m 2
 597 -237 608 -253 608 -269 c 0
 608 -284 597 -301 576 -301 c 2
 576 -301 384 -301 384 -301 c 2
 363 -301 352 -284 352 -269 c 0
 352 -253 363 -237 384 -237 c 2
 384 -237 448 -237 448 -237 c 1
 448 -237 448 39 448 39 c 1
 357 -36 244 -31 162 24 c 0
 95 68 49 145 50 239 c 0
 49 348 111 434 195 473 c 0
 272 510 368 505 448 440 c 1
 448 440 448 447 448 447 c 2
 448 465 462 479 480 479 c 2
 480 479 544 479 544 479 c 2
 586 478 586 417 544 415 c 2
 544 415 512 415 512 415 c 1
 512 415 512 351 512 351 c 1
 512 351 512 351 512 351 c 1
 512 351 512 -237 512 -237 c 1
 512 -237 576 -237 576 -237 c 2
296 47 m 0
 375 47 422 94 448 136 c 1
 448 136 448 343 448 343 c 1
 405 417 327 442 257 427 c 0
 181 410 114 344 114 239 c 0
 114 130 192 47 296 47 c 0
EndSplineSet
Validated: 33
EndChar

StartChar: r
Encoding: 114 114 38
Width: 660
Flags: HW
LayerCount: 2
Fore
SplineSet
584 443 m 0
 605 417 614 383 608 355 c 0
 602 325 576 303 545 303 c 0
 481 303 458 387 511 421 c 1
 496 429 475 434 444 432 c 0
 384 427 334 373 306 335 c 1
 306 335 306 64 306 64 c 1
 306 64 466 64 466 64 c 2
 487 64 498 47 498 32 c 0
 498 16 487 0 466 0 c 2
 466 0 82 0 82 0 c 2
 60 0 50 16 50 32 c 0
 50 47 60 64 82 64 c 2
 82 64 242 64 242 64 c 1
 242 64 242 416 242 416 c 1
 242 416 82 416 82 416 c 2
 61 416 50 432 50 448 c 0
 50 463 61 480 82 480 c 2
 82 480 274 480 274 480 c 2
 292 480 306 466 306 448 c 2
 306 448 306 431 306 431 c 1
 339 462 385 492 440 495 c 0
 497 499 549 485 584 443 c 0
EndSplineSet
Validated: 33
EndChar

StartChar: s
Encoding: 115 115 39
Width: 503
Flags: HW
LayerCount: 2
Fore
SplineSet
452 136 m 1
 461 46 393 -16 281 -16 c 0
 273 -16 266 -16 258 -15 c 0
 195 -11 148 13 114 39 c 1
 114 39 114 16 114 16 c 2
 113 -6 98 -16 82 -16 c 0
 66 -16 51 -6 50 16 c 2
 50 16 50 112 50 112 c 2
 50 141 87 155 106 132 c 1
 106 132 122 114 149 93 c 0
 182 66 221 51 262 49 c 0
 329 44 394 64 388 127 c 0
 382 171 328 204 246 214 c 0
 190 221 148 234 117 254 c 0
 81 277 61 310 58 350 c 0
 54 451 149 506 252 494 c 0
 306 489 348 464 379 436 c 1
 379 436 379 448 379 448 c 2
 380 469 395 479 411 479 c 0
 427 479 442 469 443 448 c 2
 443 448 443 352 443 352 c 2
 443 320 402 308 385 333 c 1
 385 333 332 423 246 431 c 0
 183 437 121 415 122 354 c 0
 123 334 133 320 151 307 c 0
 174 293 208 283 254 277 c 0
 346 266 437 226 452 136 c 1
EndSplineSet
Validated: 33
EndChar

StartChar: t
Encoding: 116 116 40
Width: 548
Flags: HW
LayerCount: 2
Fore
SplineSet
498 147 m 0
 500 92 480 41 440 18 c 0
 401 -7 338 -5 300 20 c 0
 254 47 241 113 242 144 c 2
 242 144 242 416 242 416 c 1
 242 416 82 416 82 416 c 2
 39 418 39 478 82 480 c 2
 82 480 242 480 242 480 c 1
 242 480 242 652 242 652 c 2
 244 695 304 695 306 652 c 2
 306 652 306 480 306 480 c 1
 306 480 466 480 466 480 c 2
 508 478 508 418 466 416 c 2
 466 416 306 416 306 416 c 1
 306 416 306 212 306 144 c 0
 306 81 336 64 374 64 c 0
 409 64 434 95 434 145 c 0
 434 163 447 178 465 178 c 0
 482 179 497 165 498 147 c 0
EndSplineSet
Validated: 33
EndChar

StartChar: u
Encoding: 117 117 41
Width: 696
Flags: HW
LayerCount: 2
Fore
SplineSet
614 126 m 0
 632 126 646 112 646 94 c 0
 644 26 593 -13 541 -16 c 0
 495 -18 449 6 430 61 c 1
 375 0 289 -31 211 -12 c 0
 169 -1 139 29 124 74 c 0
 114 108 114 142 114 160 c 2
 114 160 114 416 114 416 c 1
 114 416 103 416 82 416 c 0
 61 416 50 432 50 448 c 0
 50 464 61 480 82 480 c 2
 82 480 146 480 146 480 c 2
 163 480 178 466 178 448 c 2
 178 448 178 160 178 160 c 2
 178 115 183 61 226 50 c 0
 269 40 321 52 361 83 c 0
 403 116 425 164 425 216 c 2
 425 216 425 416 425 416 c 1
 425 416 393 416 393 416 c 2
 372 416 361 432 361 448 c 0
 361 464 372 480 393 480 c 2
 393 480 457 480 457 480 c 2
 475 480 489 466 489 448 c 2
 489 448 489 91 489 91 c 2
 491 67 511 48 535 48 c 0
 561 48 582 69 582 94 c 0
 582 112 596 126 614 126 c 0
EndSplineSet
Validated: 33
EndChar

StartChar: v
Encoding: 118 118 42
Width: 667
Flags: HW
LayerCount: 2
Fore
SplineSet
585 480 m 2
 606 480 617 464 617 448 c 0
 617 432 606 416 585 416 c 2
 585 416 525 416 525 416 c 1
 525 416 363 20 363 20 c 2
 359 8 347 0 334 0 c 0
 321 0 309 8 304 20 c 2
 304 20 141 416 141 416 c 1
 141 416 82 416 82 416 c 2
 61 416 50 432 50 448 c 0
 50 464 61 480 82 480 c 2
 82 480 274 480 274 480 c 2
 295 480 306 464 306 448 c 0
 306 432 295 416 274 416 c 2
 274 416 211 416 211 416 c 1
 211 416 334 116 334 116 c 1
 334 116 456 416 456 416 c 1
 456 416 393 416 393 416 c 2
 372 416 361 432 361 448 c 0
 361 464 372 480 393 480 c 2
 393 480 585 480 585 480 c 2
EndSplineSet
Validated: 1
EndChar

StartChar: w
Encoding: 119 119 43
Width: 898
Flags: HW
LayerCount: 2
Fore
SplineSet
816 480 m 2
 837 480 848 464 848 448 c 0
 848 432 836 416 816 416 c 2
 816 416 754 416 754 416 c 1
 754 416 594 20 594 20 c 2
 590 8 578 0 565 0 c 2
 565 0 565 0 564 0 c 0
 551 0 539 8 535 21 c 2
 535 21 453 240 453 240 c 1
 453 240 363 20 363 20 c 2
 359 8 347 0 334 0 c 0
 321 0 309 8 304 20 c 2
 304 20 143 416 143 416 c 1
 143 416 82 416 82 416 c 2
 61 416 50 432 50 448 c 0
 50 463 61 480 82 480 c 2
 82 480 274 480 274 480 c 2
 295 480 306 464 306 448 c 0
 306 432 295 416 274 416 c 2
 274 416 212 416 212 416 c 1
 212 416 334 117 334 117 c 1
 334 117 424 340 424 340 c 2
 429 352 441 360 454 360 c 0
 467 360 479 352 484 339 c 2
 484 339 566 120 566 120 c 1
 566 120 685 416 685 416 c 1
 685 416 624 416 624 416 c 2
 604 416 592 432 592 448 c 0
 592 464 603 480 624 480 c 2
 624 480 816 480 816 480 c 2
EndSplineSet
Validated: 1
EndChar

StartChar: x
Encoding: 120 120 44
Width: 667
Flags: HW
LayerCount: 2
Fore
SplineSet
585 64 m 2
 606 64 617 48 617 32 c 0
 617 16 606 0 585 0 c 2
 585 0 393 0 393 0 c 2
 372 0 361 16 361 32 c 0
 361 48 372 64 393 64 c 2
 393 64 449 64 449 64 c 1
 449 64 334 191 334 191 c 1
 334 191 218 64 218 64 c 1
 218 64 274 64 274 64 c 2
 295 64 306 48 306 32 c 0
 306 16 295 0 274 0 c 2
 274 0 82 0 82 0 c 2
 61 0 50 16 50 32 c 0
 50 48 62 64 82 64 c 2
 82 64 132 64 132 64 c 1
 132 64 291 240 291 240 c 1
 291 240 132 416 132 416 c 1
 132 416 82 416 82 416 c 2
 62 416 50 432 50 448 c 0
 50 464 61 480 82 480 c 2
 82 480 274 480 274 480 c 2
 295 480 306 464 306 448 c 0
 306 432 295 416 274 416 c 2
 274 416 218 416 218 416 c 1
 218 416 334 288 334 288 c 1
 334 288 450 416 450 416 c 1
 450 416 393 416 393 416 c 2
 372 416 361 432 361 448 c 0
 361 464 372 480 393 480 c 2
 393 480 585 480 585 480 c 2
 605 480 617 464 617 448 c 0
 617 432 606 416 585 416 c 2
 585 416 535 416 535 416 c 1
 535 416 376 240 376 240 c 1
 376 240 534 64 534 64 c 1
 534 64 585 64 585 64 c 2
EndSplineSet
Validated: 1
EndChar

StartChar: y
Encoding: 121 121 45
Width: 701
Flags: HW
LayerCount: 2
Fore
SplineSet
619 480 m 2
 640 480 651 464 651 448 c 0
 651 432 640 416 619 416 c 2
 619 416 559 416 559 416 c 1
 559 416 294 -233 294 -233 c 1
 294 -233 293 -233 293 -233 c 1
 293 -234 293 -234 293 -234 c 1
 284 -255 269 -272 250 -283 c 0
 231 -295 204 -300 177 -300 c 0
 136 -300 102 -284 77 -246 c 0
 55 -213 47 -181 51 -156 c 0
 56 -118 85 -93 119 -93 c 0
 154 -93 176 -117 181 -143 c 0
 188 -173 174 -207 136 -219 c 1
 146 -230 160 -236 179 -236 c 0
 216 -236 228 -222 235 -208 c 2
 235 -208 333 32 333 32 c 1
 333 32 175 416 175 416 c 1
 175 416 116 416 116 416 c 2
 95 416 84 432 84 448 c 0
 84 464 95 480 116 480 c 2
 116 480 308 480 308 480 c 2
 329 480 340 464 340 448 c 0
 340 432 329 416 308 416 c 2
 308 416 245 416 245 416 c 1
 245 416 368 117 368 117 c 1
 368 117 490 416 490 416 c 1
 490 416 427 416 427 416 c 2
 406 416 395 432 395 448 c 0
 395 464 406 480 427 480 c 2
 427 480 619 480 619 480 c 2
EndSplineSet
Validated: 33
EndChar

StartChar: z
Encoding: 122 122 46
Width: 493
Flags: W
LayerCount: 2
Fore
SplineSet
411 0 m 2
 411 0 82 0 82 0 c 2
 55 0 40 31 57 52 c 2
 57 52 345 416 345 416 c 1
 345 416 114 416 114 416 c 1
 114 416 114 352 114 352 c 2
 114 332 98 320 82 320 c 0
 67 320 50 332 50 352 c 2
 50 352 50 448 50 448 c 2
 50 466 64 480 82 480 c 2
 82 480 411 480 411 480 c 2
 423 480 434 473 440 462 c 0
 445 451 444 438 436 428 c 2
 436 428 148 64 148 64 c 1
 148 64 379 64 379 64 c 1
 379 64 379 128 379 128 c 2
 379 149 396 160 411 160 c 0
 427 160 443 149 443 128 c 2
 443 128 443 32 443 32 c 2
 443 14 429 0 411 0 c 2
EndSplineSet
Validated: 33
EndChar
